<svg xmlns="http://www.w3.org/2000/svg" style="display:none;">
<symbol id="del" viewBox="0 0 24 24"><defs><clipPath id="a"><rect width="23" height="23" fill-opacity="0" rx="0" transform="translate(.5 .5)"/></clipPath></defs><g clip-path="url(#a)"><path fill-rule="evenodd" d="m20.18 7.2 2.25 5.25q.06.13.07.3v5.25q0 .3-.22.53a.8.8 0 0 1-.53.22h-1.61a3 3 0 0 1-1.06 1.62 3.04 3.04 0 0 1-3.67 0 3 3 0 0 1-1.06-1.62h-4.71a3 3 0 0 1-3.28 2.22 3 3 0 1 1 3.28-3.72h4.71q.15-.59.52-1.06.35-.48.88-.78v-9.41h-11.25v-1.5h12q.3 0 .53.21a.8.8 0 0 1 .22.54v1.5h2.25q.22 0 .41.12t.27.33m-11.18 1.05h-7.5v1.5h7.5zm10 0h-1.75v3.75h3.36zm-7 3.75h-9v1.5h9zm8.14 5.25h.86v-3.75h-3.75v1.5a3 3 0 0 1 2.89 2.25m-14.23 1.99a1.5 1.5 0 0 0 1.9-.18 1.5 1.5 0 0 0 .18-1.9 1.5 1.5 0 0 0-2.72.54q-.07.44.09.87.17.42.55.67m10.5 0a1.5 1.5 0 0 0 1.9-.18 1.5 1.5 0 0 0 .18-1.9 1.5 1.5 0 0 0-2.72.54q-.07.44.09.87.17.42.55.67"/></g></symbol>
<symbol id="Vector" viewBox="0 0 24 24"><path fill-rule="evenodd" d="m18.68 2.7 2.25 5.25q.06.14.07.3v5.25q0 .3-.22.53a.8.8 0 0 1-.53.22h-1.61a3 3 0 0 1-1.06 1.62 3.04 3.04 0 0 1-3.67 0 3 3 0 0 1-1.06-1.62h-4.71a3 3 0 0 1-3.28 2.22 3 3 0 1 1 3.28-3.72h4.71q.15-.59.52-1.06.35-.48.88-.78v-9.41h-11.25v-1.5h12q.3 0 .53.21a.8.8 0 0 1 .22.54v1.5h2.25q.22 0 .41.12t.27.33m-11.18 1.05h-7.5v1.5h7.5zm10 0h-1.75v3.75h3.36zm-7 3.75h-9v1.5h9zm8.14 5.25h.86v-3.75h-3.75v1.5a3 3 0 0 1 2.89 2.25m-14.23 1.99a1.5 1.5 0 0 0 1.9-.18q.42-.46.44-1.06 0-.46-.26-.84a1.5 1.5 0 0 0-2.72.54q-.07.44.09.87.17.42.55.67m10.5 0a1.5 1.5 0 0 0 1.9-.18q.42-.46.44-1.06 0-.46-.26-.84a1.5 1.5 0 0 0-2.72.54q-.07.44.09.87.17.42.55.67"/></symbol>
</svg>